<svg xmlns="http://www.w3.org/2000/svg" width="77" height="60" fill="none" viewBox="0 0 77 60"><g fill="currentColor" clip-path="url(#a)"><path d="M67.7 2.695h6.9v56.612L77 56.91V.3h-6.9zM9.5 49.622v-9.485H2.4L0 42.433h7.1v9.485h9v-2.296zM16.1 2.695h7.2v56.612l2.4-2.397V.3h-7.3zM43.3 9.584H41v42.434h9.3V49.62h-7z"/><path d="M59.8 11.681C59.8 5.391 54.7.3 48.5.3H36.3l-2.4 2.396h14.5c5 0 9 4.094 9 8.986v47.626l2.4-2.297z"/></g><defs><clipPath id="a"><path fill="#000" d="M0 .299h77v59.008H0z"/></clipPath></defs></svg>