<svg viewBox="0 0 206 31" xmlns="http://www.w3.org/2000/svg">
  <path d="M66.66 29.3c-4.62 0-7.98-1.95-8.61-6.66l4.05-1.08c.33 3.54 1.92 4.38 4.65 4.38 2.67 0 3.81-.84 3.81-2.73 0-1.8-.81-2.16-3.12-2.61l-3.57-.69c-2.64-.51-5.31-1.98-5.31-6.03 0-3.72 3.09-6.18 7.62-6.18 4.62 0 7.77 2.1 8.16 6.54l-3.78 1.05c-.18-3.51-1.89-4.17-4.41-4.17-2.34 0-3.48.78-3.48 2.58 0 1.86.99 2.28 3.18 2.67l3.3.63c3.39.63 5.49 2.31 5.49 5.67 0 3.99-3.09 6.63-7.98 6.63zm19.96-11.64h-4.26v7.98h3.9V29h-3.15c-2.73 0-4.56-1.83-4.56-4.56v-6.78h-2.82V14.3h2.82V9.92h3.81v4.38h4.26v3.36zM95.87 14c4.29 0 7.86 2.97 7.86 7.68 0 4.68-3.57 7.62-7.86 7.62-4.32 0-7.89-2.94-7.89-7.62 0-4.71 3.57-7.68 7.89-7.68zm0 11.85c2.73 0 4.02-1.35 4.02-4.17 0-2.88-1.29-4.23-4.02-4.23-2.76 0-4.05 1.35-4.05 4.23 0 2.82 1.29 4.17 4.05 4.17zm18.7-11.79c.54 0 1.23 0 1.77.21v3.6c-.54-.21-1.02-.3-1.98-.3-2.4 0-4.08 1.62-4.08 5.34V29h-3.81V14.3h3.81v4.17c.39-2.22 1.47-4.41 4.29-4.41zM128.53 29l-3.6-6.15-2.52 2.7V29h-3.81V8h3.81v14.16l2.07-3.3 3.66-4.56h4.77l-5.61 6.03 5.79 8.67h-4.56zm23.42-3.3c3.81 0 5.76-1.65 6.42-5.82l3.96.84c-.96 5.55-5.07 8.58-10.38 8.58-6 0-10.86-4.41-10.86-10.8 0-6.45 4.86-10.8 10.86-10.8 5.31 0 9.42 3.03 10.38 8.58l-3.96.84c-.66-4.17-2.61-5.82-6.42-5.82-4.47 0-6.75 2.4-6.75 7.17 0 4.8 2.28 7.23 6.75 7.23zm13.03 3.3V8h3.81v21h-3.81zm17.56-14.7h3.81V29h-3.81v-3.45c-.72 2.4-2.25 3.75-4.89 3.75-3.48 0-5.22-2.07-5.22-6.21V14.3h3.81v8.58c0 1.98 1.02 2.97 2.82 2.97 2.13 0 3.48-1.5 3.48-4.53V14.3zm16.72-.3c4.08 0 6.48 3.06 6.48 7.68 0 4.56-2.49 7.62-6.69 7.62-2.4 0-4.14-1.23-5.07-3.45V29h-3.81V8h3.81v9.54c.93-2.28 2.79-3.54 5.28-3.54zm-1.35 11.85c2.73 0 3.99-1.35 3.99-4.17 0-2.88-1.26-4.23-3.99-4.23-2.79 0-4.08 1.35-4.08 4.23 0 2.82 1.29 4.17 4.08 4.17z" fill="currentColor"/>
  <path d="M38.159 7.153l1.193-5.64L45 8.018l-6.841-.864zM21.928 31.759l-9.21-12.888 20.936 2.309-11.726 10.579zm3.892-2.342l8.603-7.864L32.05 32l-6.23-2.583zm-15.492-3.08l1.257-7.72L19.07 28.82l-5.676 2.763-3.065-5.247zm1.475-8.231l7.25-9.032 7.789 6.06.002.004 6.756 5.255-9.81-1.03-11.987-1.257zM35.214 1.35L38.528 1l-4.224 18.773-7.008-5.452 7.918-12.97zM9.75 25.579L0 6.139l12.36 10.008-1.301 1.63-.002.005a.255.255 0 00-.034.05c-.002.003-.002.004-.002.009a.064.064 0 00-.01.011v.008a.289.289 0 00-.02.07L9.75 25.579z" fill="currentColor"/>
</svg>
