<svg xmlns="http://www.w3.org/2000/svg" fill="currentColor" viewBox="0 0 22 24"><path d="M11.61 7.82c-.72 0-1.35.15-1.88.46-.54.3-.95.72-1.24 1.26s-.43 1.15-.43 1.84.14 1.32.43 1.86c.02.03.03.06.05.08l4.97-4.97s-.08-.06-.13-.09c-.43-.29-1.02-.43-1.78-.43Z"/><path d="M11 0C4.92 0 0 1.79 0 4v8c0 6.6 7.6 12 11 12s11-5.37 11-12V4c0-2.21-4.92-4-11-4m.66 14.93c.66 0 1.24-.1 1.75-.31s.94-.51 1.3-.91l1.68 1.7c-.56.66-1.24 1.15-2.05 1.49s-1.69.5-2.65.5c-1.22 0-2.29-.27-3.23-.8-.94-.54-1.67-1.26-2.2-2.17s-.79-1.93-.79-3.05.27-2.13.8-3.02c.54-.9 1.26-1.61 2.18-2.15s1.96-.8 3.11-.8 2.18.26 3 .78 1.47 1.25 1.97 2.2l-6.3 6.32c.43.15.9.23 1.43.23Z"/></svg>